<svg width="20" height="20" viewBox="0 0 20 20" fill="none" xmlns="http://www.w3.org/2000/svg">
<path d="M5.00008 7.5H3.75008C3.19755 7.5 2.66764 7.28051 2.27694 6.88981C1.88624 6.49911 1.66675 5.9692 1.66675 5.41667C1.66675 4.86413 1.88624 4.33423 2.27694 3.94353C2.66764 3.55283 3.19755 3.33334 3.75008 3.33334H5.00008" stroke="white" stroke-width="1.66667" stroke-linecap="round" stroke-linejoin="round"/>
<path d="M15 7.5H16.25C16.8025 7.5 17.3324 7.28051 17.7231 6.88981C18.1138 6.49911 18.3333 5.9692 18.3333 5.41667C18.3333 4.86413 18.1138 4.33423 17.7231 3.94353C17.3324 3.55283 16.8025 3.33334 16.25 3.33334H15" stroke="white" stroke-width="1.66667" stroke-linecap="round" stroke-linejoin="round"/>
<path d="M3.33325 18.3333H16.6666" stroke="white" stroke-width="1.66667" stroke-linecap="round" stroke-linejoin="round"/>
<path d="M8.33325 12.2167V14.1667C8.33325 14.625 7.94159 14.9833 7.52492 15.175C6.54159 15.625 5.83325 16.8667 5.83325 18.3333" stroke="white" stroke-width="1.66667" stroke-linecap="round" stroke-linejoin="round"/>
<path d="M11.6667 12.2167V14.1667C11.6667 14.625 12.0584 14.9833 12.4751 15.175C13.4584 15.625 14.1667 16.8667 14.1667 18.3333" stroke="white" stroke-width="1.66667" stroke-linecap="round" stroke-linejoin="round"/>
<path d="M15 1.66666H5V7.5C5 8.82608 5.52678 10.0978 6.46447 11.0355C7.40215 11.9732 8.67392 12.5 10 12.5C11.3261 12.5 12.5979 11.9732 13.5355 11.0355C14.4732 10.0978 15 8.82608 15 7.5V1.66666Z" stroke="white" stroke-width="1.66667" stroke-linecap="round" stroke-linejoin="round"/>
</svg>
