<svg width="20" height="20" viewBox="0 0 20 20" fill="none" xmlns="http://www.w3.org/2000/svg">
<path d="M5.00001 7.5H3.75001C3.19747 7.5 2.66757 7.28051 2.27687 6.8898C1.88617 6.4991 1.66667 5.9692 1.66667 5.41667C1.66667 4.86413 1.88617 4.33423 2.27687 3.94353C2.66757 3.55283 3.19747 3.33333 3.75001 3.33333H5.00001" stroke="#364153" stroke-width="1.66667" stroke-linecap="round" stroke-linejoin="round"/>
<path d="M15 7.5H16.25C16.8025 7.5 17.3324 7.28051 17.7231 6.8898C18.1138 6.4991 18.3333 5.9692 18.3333 5.41667C18.3333 4.86413 18.1138 4.33423 17.7231 3.94353C17.3324 3.55283 16.8025 3.33333 16.25 3.33333H15" stroke="#364153" stroke-width="1.66667" stroke-linecap="round" stroke-linejoin="round"/>
<path d="M3.33333 18.3333H16.6667" stroke="#364153" stroke-width="1.66667" stroke-linecap="round" stroke-linejoin="round"/>
<path d="M8.33333 12.2167V14.1667C8.33333 14.625 7.94166 14.9833 7.52499 15.175C6.54166 15.625 5.83333 16.8667 5.83333 18.3333" stroke="#364153" stroke-width="1.66667" stroke-linecap="round" stroke-linejoin="round"/>
<path d="M11.6667 12.2167V14.1667C11.6667 14.625 12.0583 14.9833 12.475 15.175C13.4583 15.625 14.1667 16.8667 14.1667 18.3333" stroke="#364153" stroke-width="1.66667" stroke-linecap="round" stroke-linejoin="round"/>
<path d="M15 1.66667H5V7.5C5 8.82608 5.52678 10.0979 6.46447 11.0355C7.40215 11.9732 8.67392 12.5 10 12.5C11.3261 12.5 12.5979 11.9732 13.5355 11.0355C14.4732 10.0979 15 8.82608 15 7.5V1.66667Z" stroke="#364153" stroke-width="1.66667" stroke-linecap="round" stroke-linejoin="round"/>
</svg>
